<svg width="60" height="60" viewBox="0 0 60 60" fill="none" xmlns="http://www.w3.org/2000/svg">
<path d="M58.8462 30.0145C58.8462 23.8941 56.4148 18.0244 52.0869 13.6966C47.7591 9.36882 41.8893 6.9375 35.7688 6.9375C29.6483 6.9375 23.7785 9.36882 19.4506 13.6966C15.1228 18.0244 12.6914 23.8941 12.6914 30.0145H19.9032C22.2929 30.0145 24.1567 28.0119 25.032 25.7882C25.6067 24.3282 26.4787 22.9865 27.6096 21.8555C29.7736 19.6916 32.7086 18.476 35.7688 18.476C38.829 18.476 41.764 19.6916 43.9279 21.8555C46.0919 24.0194 47.3074 26.9543 47.3074 30.0145H58.8462Z" fill="url(#paint0_linear_319_1059)"/>
<path d="M45.5515 38.8428C46.7112 36.043 47.3082 33.0421 47.3082 30.0117H58.8457C58.8457 42.7567 48.5135 53.0886 35.7682 53.0886C33.7723 53.0886 31.8353 52.8352 29.9883 52.3589C31.0334 52.0896 32.0606 51.7467 33.0621 51.332C35.862 50.1722 38.406 48.4725 40.5489 46.3296C42.6919 44.1866 44.3918 41.6427 45.5515 38.8428Z" fill="#FBCF8E"/>
<path d="M1.1543 30.0117C1.1543 33.0423 1.75121 36.0431 2.91096 38.843C4.07071 41.6428 5.77057 44.1868 7.91351 46.3297C10.0564 48.4725 12.6005 50.1724 15.4003 51.3321C18.2002 52.4919 21.2011 53.0887 24.2317 53.0887C27.2622 53.0887 30.2631 52.4919 33.063 51.3321C35.8629 50.1724 38.4069 48.4725 40.5499 46.3297C42.6928 44.1868 44.3926 41.6428 45.5524 38.843C46.7121 36.0431 47.3091 33.0423 47.3091 30.0117H40.0973C37.7076 30.0117 35.8438 32.0144 34.9685 34.2379C34.9437 34.3013 34.9181 34.3643 34.8921 34.4274C34.3122 35.8273 33.4623 37.0993 32.3907 38.1707C31.3193 39.2421 30.0472 40.0921 28.6474 40.672C27.2475 41.2519 25.747 41.5503 24.2317 41.5503C22.7164 41.5503 21.216 41.2519 19.8161 40.672C18.4161 40.0921 17.1441 39.2421 16.0726 38.1707C15.0011 37.0993 14.1512 35.8273 13.5713 34.4274C12.9914 33.0274 12.693 31.527 12.693 30.0117H1.1543Z" fill="url(#paint1_linear_319_1059)"/>
<path d="M1.16016 30.0145C1.16016 17.2694 11.4922 6.9375 24.2374 6.9375C26.233 6.9375 28.1693 7.19076 30.0162 7.66691C26.0533 8.68779 22.3975 10.7538 19.4545 13.6966C15.1267 18.0243 12.6953 23.8941 12.6953 30.0145H1.16016Z" fill="#73E5E2"/>
<defs>
<linearGradient id="paint0_linear_319_1059" x1="58.8462" y1="18.476" x2="12.6914" y2="18.476" gradientUnits="userSpaceOnUse">
<stop stop-color="#73E5E2"/>
<stop offset="1" stop-color="#394F87"/>
</linearGradient>
<linearGradient id="paint1_linear_319_1059" x1="1.1543" y1="41.5503" x2="47.3091" y2="41.5503" gradientUnits="userSpaceOnUse">
<stop stop-color="#FBDC8E"/>
<stop offset="1" stop-color="#FB958E"/>
</linearGradient>
</defs>
</svg>
